<svg width="40" height="40" viewBox="0 0 40 40" fill="none" xmlns="http://www.w3.org/2000/svg">
<path d="M16.25 27.5C19.0114 27.5 21.25 25.2614 21.25 22.5C21.25 19.7386 19.0114 17.5 16.25 17.5C13.4886 17.5 11.25 19.7386 11.25 22.5C11.25 25.2614 13.4886 27.5 16.25 27.5Z" stroke="#F5E5D5" stroke-width="3" stroke-linecap="round" stroke-linejoin="round"/>
<path d="M8.34213 32.4998C9.0523 31.0037 10.1723 29.7398 11.5721 28.8548C12.9718 27.9698 14.5939 27.5 16.25 27.5C17.9061 27.5 19.5282 27.9698 20.9279 28.8548C22.3277 29.7398 23.4477 31.0037 24.1579 32.4998L33.75 32.5C33.9141 32.5 34.0767 32.4677 34.2283 32.4049C34.38 32.342 34.5178 32.25 34.6339 32.1339C34.75 32.0178 34.842 31.88 34.9048 31.7284C34.9677 31.5767 35 31.4142 35 31.25V8.75C35 8.41848 34.8683 8.10054 34.6339 7.86612C34.3995 7.6317 34.0815 7.5 33.75 7.5H6.25C5.91848 7.5 5.60054 7.6317 5.36612 7.86612C5.1317 8.10054 5 8.41848 5 8.75V31.2501C5 31.4143 5.03233 31.5768 5.09515 31.7285C5.15797 31.8801 5.25005 32.0179 5.36612 32.134C5.4822 32.25 5.62 32.3421 5.77165 32.4049C5.92331 32.4677 6.08585 32.5 6.25 32.5L8.34213 32.4998Z" stroke="#F5E5D5" stroke-width="3" stroke-linecap="round" stroke-linejoin="round"/>
<path d="M27.5 27.5H30V12.5H10V15" stroke="#F5E5D5" stroke-width="3" stroke-linecap="round" stroke-linejoin="round"/>
</svg>
