<svg width="100" height="100" viewBox="0 0 100 100" fill="none" xmlns="http://www.w3.org/2000/svg">
<path d="M49.5 88C70.2107 88 87 71.2107 87 50.5C87 29.7893 70.2107 13 49.5 13C28.7893 13 12 29.7893 12 50.5C12 71.2107 28.7893 88 49.5 88Z" stroke="#2E4660" stroke-width="4" stroke-linecap="round" stroke-linejoin="round"/>
<path d="M83.1582 67.0517L61.9526 54.0093C61.5808 53.7807 61.1654 53.6325 60.7329 53.5742L51.8193 52.3726C51.15 52.2824 50.4695 52.4114 49.8796 52.7404C49.2898 53.0694 48.8224 53.5806 48.5475 54.1975L43.1964 66.2047C42.9476 66.7631 42.868 67.3822 42.9674 67.9854C43.0669 68.5885 43.3412 69.1493 43.7562 69.5982L51.0999 77.5414C51.4328 77.9015 51.6763 78.3349 51.8107 78.8065C51.9451 79.2782 51.9666 79.7748 51.8734 80.2563L50.3776 87.9893" stroke="#2E4660" stroke-width="4" stroke-linecap="round" stroke-linejoin="round"/>
<path d="M24.872 22.2212L21.3781 30.4828C21.0666 31.2194 21.0494 32.0475 21.33 32.7964L25.8186 44.7762C26.0024 45.2668 26.3066 45.7033 26.7032 46.0455C27.0998 46.3878 27.5761 46.6249 28.0883 46.735L36.4594 48.5342C36.9239 48.634 37.3595 48.8384 37.7331 49.1319C38.1067 49.4254 38.4085 49.8002 38.6155 50.2278L40.1021 53.2989C40.3579 53.8274 40.7575 54.2732 41.2549 54.5851C41.7524 54.897 42.3277 55.0624 42.9149 55.0624H48.162" stroke="#2E4660" stroke-width="4" stroke-linecap="round" stroke-linejoin="round"/>
<path d="M59.0539 14.2299L62.6999 20.7605C63.0446 21.3779 63.1697 22.0939 63.0548 22.7915C62.9399 23.4892 62.5918 24.1273 62.0674 24.6016L51.5554 34.1084C51.377 34.2698 51.1805 34.41 50.9699 34.5262L46.188 37.167C45.7255 37.4224 45.2057 37.5564 44.6773 37.5564H36.3393C35.7244 37.5564 35.1232 37.7378 34.6109 38.0779C34.0986 38.418 33.6981 38.9016 33.4594 39.4683L30.2065 47.1903" stroke="#2E4660" stroke-width="4" stroke-linecap="round" stroke-linejoin="round"/>
<circle cx="35" cy="34" r="5" fill="#DE5241"/>
</svg>

