<svg width="35" height="35" viewBox="0 0 35 35" fill="none" xmlns="http://www.w3.org/2000/svg">
<mask id="path-1-inside-1" fill="white">
<path d="M20.7804 28.4365V21.8738C20.7804 21.5837 20.6652 21.3055 20.4601 21.1004C20.255 20.8953 19.9768 20.7801 19.6867 20.7801H15.3117C15.0216 20.7801 14.7434 20.8953 14.5383 21.1004C14.3332 21.3055 14.2179 21.5837 14.2179 21.8738V28.4365C14.2179 28.7265 14.1027 29.0047 13.8976 29.2098C13.6926 29.4149 13.4144 29.5302 13.1243 29.5302L6.56264 29.5311C6.41899 29.5311 6.27675 29.5028 6.14403 29.4479C6.01132 29.3929 5.89073 29.3123 5.78915 29.2108C5.68757 29.1092 5.60699 28.9886 5.55202 28.8559C5.49705 28.7232 5.46875 28.581 5.46875 28.4373V15.7963C5.46875 15.6439 5.50059 15.4932 5.56223 15.3538C5.62387 15.2145 5.71395 15.0895 5.82669 14.987L16.7634 5.0428C16.9648 4.85975 17.2271 4.75831 17.4992 4.7583C17.7713 4.75829 18.0337 4.85971 18.235 5.04276L29.1733 14.987C29.286 15.0895 29.3761 15.2145 29.4378 15.3538C29.4994 15.4932 29.5312 15.6439 29.5312 15.7963V28.4373C29.5312 28.581 29.503 28.7232 29.448 28.8559C29.393 28.9886 29.3124 29.1092 29.2108 29.2108C29.1093 29.3123 28.9887 29.3929 28.856 29.4479C28.7232 29.5028 28.581 29.5311 28.4374 29.5311L21.8741 29.5302C21.584 29.5302 21.3058 29.4149 21.1007 29.2098C20.8957 29.0047 20.7804 28.7265 20.7804 28.4365Z"/>
</mask>
<path d="M20.7804 28.4365V21.8738C20.7804 21.5837 20.6652 21.3055 20.4601 21.1004C20.255 20.8953 19.9768 20.7801 19.6867 20.7801H15.3117C15.0216 20.7801 14.7434 20.8953 14.5383 21.1004C14.3332 21.3055 14.2179 21.5837 14.2179 21.8738V28.4365C14.2179 28.7265 14.1027 29.0047 13.8976 29.2098C13.6926 29.4149 13.4144 29.5302 13.1243 29.5302L6.56264 29.5311C6.41899 29.5311 6.27675 29.5028 6.14403 29.4479C6.01132 29.3929 5.89073 29.3123 5.78915 29.2108C5.68757 29.1092 5.60699 28.9886 5.55202 28.8559C5.49705 28.7232 5.46875 28.581 5.46875 28.4373V15.7963C5.46875 15.6439 5.50059 15.4932 5.56223 15.3538C5.62387 15.2145 5.71395 15.0895 5.82669 14.987L16.7634 5.0428C16.9648 4.85975 17.2271 4.75831 17.4992 4.7583C17.7713 4.75829 18.0337 4.85971 18.235 5.04276L29.1733 14.987C29.286 15.0895 29.3761 15.2145 29.4378 15.3538C29.4994 15.4932 29.5312 15.6439 29.5312 15.7963V28.4373C29.5312 28.581 29.503 28.7232 29.448 28.8559C29.393 28.9886 29.3124 29.1092 29.2108 29.2108C29.1093 29.3123 28.9887 29.3929 28.856 29.4479C28.7232 29.5028 28.581 29.5311 28.4374 29.5311L21.8741 29.5302C21.584 29.5302 21.3058 29.4149 21.1007 29.2098C20.8957 29.0047 20.7804 28.7265 20.7804 28.4365Z" fill="#F5E5D5"/>
<path d="M14.2179 28.4365H10.2179H14.2179ZM13.1243 29.5302L13.1238 25.5302H13.1238L13.1243 29.5302ZM6.56264 29.5311L6.56314 33.5311H6.56316L6.56264 29.5311ZM5.46875 28.4373H9.46875H5.46875ZM5.46875 15.7963H9.46875V15.7963L5.46875 15.7963ZM5.82669 14.987L3.13575 12.0275L3.13575 12.0275L5.82669 14.987ZM16.7634 5.0428L19.4544 8.00233L19.4544 8.00233L16.7634 5.0428ZM18.235 5.04276L20.9257 2.08305L18.235 5.04276ZM29.1733 14.987L31.864 12.0273L31.864 12.0273L29.1733 14.987ZM29.5312 15.7963L25.5312 15.7963V15.7963H29.5312ZM29.5312 28.4373H25.5312H29.5312ZM28.4374 29.5311L28.4368 33.5311H28.4369L28.4374 29.5311ZM21.8741 29.5302L21.8746 25.5302H21.8746L21.8741 29.5302ZM24.7804 28.4365V21.8738H16.7804V28.4365H24.7804ZM24.7804 21.8738C24.7804 20.5229 24.2438 19.2273 23.2885 18.272L17.6317 23.9289C17.0866 23.3838 16.7804 22.6446 16.7804 21.8738H24.7804ZM23.2885 18.272C22.3333 17.3167 21.0377 16.7801 19.6867 16.7801V24.7801C18.9159 24.7801 18.1767 24.4739 17.6317 23.9289L23.2885 18.272ZM19.6867 16.7801H15.3117V24.7801H19.6867V16.7801ZM15.3117 16.7801C13.9607 16.7801 12.6651 17.3167 11.7099 18.272L17.3667 23.9289C16.8217 24.4739 16.0825 24.7801 15.3117 24.7801V16.7801ZM11.7099 18.272C10.7546 19.2273 10.2179 20.5229 10.2179 21.8738H18.2179C18.2179 22.6446 17.9118 23.3838 17.3667 23.9289L11.7099 18.272ZM10.2179 21.8738V28.4365H18.2179V21.8738H10.2179ZM10.2179 28.4365C10.2179 27.6657 10.5241 26.9266 11.069 26.3816L16.7262 32.0381C17.6814 31.0828 18.2179 29.7873 18.2179 28.4365H10.2179ZM11.069 26.3816C11.614 25.8366 12.3531 25.5303 13.1238 25.5302L13.1248 33.5302C14.4757 33.53 15.7711 32.9933 16.7262 32.0381L11.069 26.3816ZM13.1238 25.5302L6.56211 25.5311L6.56316 33.5311L13.1249 33.5302L13.1238 25.5302ZM6.56214 25.5311C6.94381 25.531 7.32177 25.6062 7.67442 25.7522L4.61365 33.1435C5.23173 33.3995 5.89417 33.5312 6.56314 33.5311L6.56214 25.5311ZM7.67442 25.7522C8.02707 25.8982 8.34749 26.1123 8.6174 26.3822L2.9609 32.0394C3.43397 32.5124 3.99557 32.8876 4.61365 33.1435L7.67442 25.7522ZM8.6174 26.3822C8.8873 26.652 9.10141 26.9724 9.24749 27.3251L1.85655 30.3868C2.11258 31.0048 2.48784 31.5664 2.9609 32.0394L8.6174 26.3822ZM9.24749 27.3251C9.39357 27.6777 9.46875 28.0557 9.46875 28.4373H1.46875C1.46875 29.1063 1.60052 29.7687 1.85655 30.3868L9.24749 27.3251ZM9.46875 28.4373V15.7963H1.46875V28.4373H9.46875ZM9.46875 15.7963C9.46875 16.2012 9.38414 16.6016 9.22036 16.9719L1.9041 13.7358C1.61704 14.3848 1.46875 15.0866 1.46875 15.7963L9.46875 15.7963ZM9.22036 16.9719C9.05657 17.3422 8.81722 17.6742 8.51764 17.9465L3.13575 12.0275C2.61069 12.5049 2.19117 13.0868 1.9041 13.7358L9.22036 16.9719ZM8.51764 17.9465L19.4544 8.00233L14.0725 2.08327L3.13575 12.0275L8.51764 17.9465ZM19.4544 8.00233C18.9194 8.48874 18.2224 8.75828 17.4993 8.7583L17.4991 0.758301C16.2318 0.758343 15.0101 1.23076 14.0725 2.08328L19.4544 8.00233ZM17.4993 8.7583C16.7763 8.75833 16.0792 8.48884 15.5443 8.00246L20.9257 2.08305C19.9881 1.23059 18.7663 0.758258 17.4991 0.758301L17.4993 8.7583ZM15.5443 8.00246L26.4825 17.9467L31.864 12.0273L20.9257 2.08305L15.5443 8.00246ZM26.4825 17.9467C26.1829 17.6743 25.9435 17.3423 25.7797 16.972L33.0958 13.7357C32.8087 13.0866 32.3891 12.5047 31.864 12.0273L26.4825 17.9467ZM25.7797 16.972C25.6159 16.6017 25.5312 16.2012 25.5312 15.7963L33.5312 15.7963C33.5312 15.0866 33.3829 14.3847 33.0958 13.7357L25.7797 16.972ZM25.5312 15.7963V28.4373H33.5312V15.7963H25.5312ZM25.5312 28.4373C25.5312 28.0557 25.6064 27.6777 25.7525 27.3251L33.1435 30.3868C33.3995 29.7687 33.5312 29.1063 33.5312 28.4373H25.5312ZM25.7525 27.3251C25.8986 26.9724 26.1127 26.652 26.3826 26.3822L32.0391 32.0394C32.5121 31.5664 32.8874 31.0048 33.1435 30.3868L25.7525 27.3251ZM26.3826 26.3822C26.6525 26.1123 26.9729 25.8982 27.3256 25.7522L30.3864 33.1435C31.0044 32.8876 31.566 32.5124 32.0391 32.0394L26.3826 26.3822ZM27.3256 25.7522C27.6782 25.6062 28.0562 25.531 28.4379 25.5311L28.4369 33.5311C29.1058 33.5312 29.7683 33.3995 30.3864 33.1435L27.3256 25.7522ZM28.4379 25.5311L21.8746 25.5302L21.8735 33.5302L28.4368 33.5311L28.4379 25.5311ZM21.8746 25.5302C22.6453 25.5303 23.3844 25.8365 23.9294 26.3816L18.2721 32.0381C19.2273 32.9933 20.5227 33.5301 21.8736 33.5302L21.8746 25.5302ZM23.9294 26.3816C24.4743 26.9266 24.7805 27.6658 24.7804 28.4365L16.7804 28.4364C16.7804 29.7873 17.317 31.0828 18.2721 32.0381L23.9294 26.3816Z" fill="#F5E5D5" mask="url(#path-1-inside-1)"/>
</svg>
