<svg width="453" height="546" viewBox="0 0 453 546" fill="none" xmlns="http://www.w3.org/2000/svg">
<path d="M299.5 227.5L161 244.5L173.5 382L180.5 469.5L171.5 545.5H334.5L319.5 451L313 356.5L343.5 341L299.5 227.5Z" fill="#2E4660"/>
<path d="M158.5 255C137 276 110.317 285.041 75.1398 270.648C39.9624 256.256 20.8316 224.782 30.0187 202.327C30.0187 181 62.5899 206.697 97.7674 221.09C132.945 235.482 180.593 238.053 158.5 255Z" fill="#2E4660"/>
<path d="M185.161 382.668C170.412 387.836 152.2 378.494 146.372 361.859C140.543 345.225 149.304 327.598 164.053 322.43C178.802 317.262 173.969 334.582 179.798 351.216C185.626 367.851 199.91 377.5 185.161 382.668Z" fill="#2E4660"/>
<path d="M184.111 424.988C183.374 421.909 184.762 418.06 188.644 413.605C192.483 409.199 198.517 404.497 206.33 399.837C221.939 390.525 244.361 381.552 269.643 375.503C294.926 369.454 318.18 367.5 335.507 368.925C344.179 369.638 351.284 371.191 356.397 373.443C361.549 375.712 364.389 378.552 365.138 381.679C365.835 384.593 364.466 387.356 360.408 390.225C356.346 393.098 349.982 395.762 341.755 398.378C329.774 402.188 314.199 405.794 296.769 409.83C290.289 411.33 283.554 412.89 276.651 414.541C269.729 416.197 263.022 417.854 256.589 419.443C239.346 423.703 224.071 427.476 211.902 429.445C203.538 430.798 196.816 431.265 192.016 430.517C187.237 429.773 184.814 427.926 184.111 424.988Z" fill="white" stroke="#2E4660" stroke-width="3"/>
<path d="M202.794 497.981C196.434 497.446 191.198 496.5 191.198 482C192.988 460.747 199.839 408.964 206.198 409.5C212.557 410.035 212.988 455.747 211.198 477C209.408 498.253 209.294 495.481 202.794 497.981Z" fill="white"/>
<path d="M30.5 388.5L143 284L62 376H84.5L0 446L48 388.5H30.5Z" fill="#2E4660"/>
<path d="M410.264 323.382L330 250L399.519 301.788L398.092 285.805L452.437 341.454L409.154 310.951L410.264 323.382Z" fill="#2E4660"/>
<path d="M374.79 101.885L265.964 201.775L342.977 115.602L319.54 117.808L401.96 49.9999L356.56 103.6L374.79 101.885Z" fill="#2E4660"/>
<path d="M240.084 57.0683L222.55 203.744L224.875 88.1954L208.525 105.133L226.913 6.01456e-05L227.367 70.2417L240.084 57.0683Z" fill="#2E4660"/>
<path d="M66.8553 120.478L179.476 216.069L84.4139 150.343L89.5106 173.326L12 99.9563L70.8194 138.354L66.8553 120.478Z" fill="#2E4660"/>
<line x1="141.51" y1="275.86" x2="82.5102" y2="310.86" stroke="#2E4660" stroke-width="2"/>
<line x1="154.868" y1="284.496" x2="130.868" y2="326.496" stroke="#2E4660" stroke-width="2"/>
<path d="M374.467 194.817L372.208 211.009L388.144 214.659L372.046 217.514L373.499 233.798L365.81 219.37L350.771 225.784L362.117 214.013L351.37 201.693L366.071 208.845L374.467 194.817Z" fill="#2E4660"/>
<path d="M363 210.5L326 212.5L363 216.5V210.5Z" fill="#2E4660"/>
<path d="M256.949 78.5695L283.225 89.4678L296.353 64.2314L294.108 92.5894L322.166 97.2762L294.502 103.904L298.715 132.037L283.863 107.775L258.408 120.476L276.893 98.8533L256.949 78.5695Z" fill="#2E4660"/>
<path d="M280.756 106.041L261.844 186.679L286.563 107.551L280.756 106.041Z" fill="#2E4660"/>
<path d="M120.426 55.9862L155.812 49.9614L152.867 14.1871L169.532 45.9794L202.645 32.1237L177.559 57.7973L200.969 85.0082L168.8 69.083L150.155 99.756L155.359 64.2402L120.426 55.9862Z" fill="#2E4660"/>
<path d="M164.316 69.3189L198.326 168.144L171.532 67.0288L164.316 69.3189Z" fill="#2E4660"/>
<path d="M340.487 164.48L345.435 174.901L356.244 170.872L347.862 178.798L355.034 187.833L344.906 182.311L338.529 191.924L340.651 180.585L329.538 177.49L340.978 176.005L340.487 164.48Z" fill="#2E4660"/>
<path d="M339.81 178.171L318.776 193.7L342.137 181.708L339.81 178.171Z" fill="#2E4660"/>
<path d="M156.274 186.243L169.931 176.448L162.003 159.984L174.918 171.866L186.159 158.785L180.484 175.924L195.358 184.303L178.937 183.014L176.888 201.273L172.414 183.338L156.274 186.243Z" fill="#2E4660"/>
<path d="M175.711 184.798L201.972 215.418L180.211 180.442L175.711 184.798Z" fill="#2E4660"/>
<ellipse cx="247.527" cy="322.877" rx="15" ry="29.2356" transform="rotate(-7.16038 247.527 322.877)" fill="white"/>
<ellipse cx="256.88" cy="328.466" rx="3.14098" ry="6.1219" transform="rotate(-7.16038 256.88 328.466)" fill="#2E4660"/>
<ellipse cx="281.527" cy="316.877" rx="15" ry="29.2356" transform="rotate(-7.16038 281.527 316.877)" fill="white"/>
<ellipse cx="272.88" cy="316.466" rx="3.14098" ry="6.1219" transform="rotate(-7.16038 272.88 316.466)" fill="#2E4660"/>
<line x1="300.434" y1="360.427" x2="312.434" y2="411.427" stroke="#2E4660" stroke-width="5"/>
<line x1="255.434" y1="374.427" x2="267.434" y2="425.427" stroke="#2E4660" stroke-width="5"/>
<line x1="213.434" y1="376.427" x2="225.434" y2="427.427" stroke="#2E4660" stroke-width="5"/>
</svg>
