<svg width="1083" height="868" viewBox="0 0 1083 868" fill="none" xmlns="http://www.w3.org/2000/svg">
<path d="M477.239 218.766C484.83 318.994 409.732 406.4 309.503 413.991C209.275 421.582 121.869 346.484 114.278 246.255C106.687 146.026 181.785 58.6212 282.014 51.0302C382.243 43.4391 469.648 118.537 477.239 218.766Z" fill="#F5E5D5" stroke="black" stroke-width="10"/>
<path d="M343.622 228.885C345.624 255.319 325.818 278.371 299.384 280.373C272.95 282.375 249.898 262.569 247.896 236.135C245.894 209.702 265.7 186.65 292.134 184.648C318.568 182.646 341.62 202.452 343.622 228.885Z" fill="#F5E5D5" stroke="black" stroke-width="40"/>
<path d="M854.869 186.843C862.46 287.072 787.362 374.477 687.133 382.068C586.905 389.66 499.499 314.562 491.908 214.333C484.317 114.104 559.415 26.699 659.644 19.1079C759.873 11.5169 847.278 86.6146 854.869 186.843Z" fill="#F5E5D5" stroke="black" stroke-width="10"/>
<path d="M721.251 196.963C723.253 223.397 703.447 246.449 677.014 248.451C650.58 250.453 627.528 230.647 625.526 204.213C623.524 177.779 643.33 154.727 669.763 152.725C696.197 150.723 719.249 170.529 721.251 196.963Z" fill="#F5E5D5" stroke="black" stroke-width="40"/>
<g filter="url(#filter0_d)">
<rect x="1" y="387.392" width="1004.3" height="470.457" transform="rotate(-3.73331 1 387.392)" fill="#2E4660"/>
</g>
<path d="M1003 327L1 392.5L0.5 385L1000.5 290L1003 327Z" fill="black"/>
<path d="M263.17 618.105L213.798 621.399L212.434 600.966L261.807 597.672L263.17 618.105ZM446.653 602.251L461.123 601.285L462.486 621.718L448.016 622.684L449.859 650.308L424.515 651.999L422.672 624.375L370.318 627.868L368.113 611.984L415.733 524.332L441.34 522.623L446.653 602.251ZM393.071 605.826L421.309 603.942L418.301 558.866L416.828 561.871L393.071 605.826ZM560.429 589.903C561.607 607.559 558.854 621.308 552.17 631.15C545.486 640.991 535.1 646.382 521.01 647.322C507.095 648.251 496.149 644.371 488.17 635.684C480.191 626.997 475.543 614.094 474.224 596.976L472.656 573.473C471.466 555.642 474.247 541.862 480.997 532.133C487.805 522.4 498.167 517.07 512.081 516.141C525.995 515.213 536.942 519.093 544.921 527.78C552.896 536.409 557.542 549.282 558.861 566.4L560.429 589.903ZM533.365 565.811C532.659 555.229 530.684 547.639 527.441 543.04C524.253 538.379 519.589 536.253 513.45 536.662C507.487 537.06 503.227 539.664 500.67 544.474C498.168 549.221 497.155 556.482 497.631 566.258L499.703 597.302C500.397 607.708 502.317 615.361 505.463 620.26C508.663 625.097 513.391 627.307 519.646 626.889C525.844 626.476 530.154 623.751 532.578 618.715C535.002 613.68 535.939 606.159 535.389 596.154L533.365 565.811ZM652.913 588.489L667.383 587.523L668.746 607.956L654.276 608.922L656.119 636.546L630.775 638.237L628.932 610.613L576.578 614.106L574.373 598.222L621.993 510.57L647.6 508.861L652.913 588.489ZM599.331 592.064L627.569 590.18L624.561 545.104L623.088 548.109L599.331 592.064ZM821.09 580.879L771.717 584.174L770.354 563.74L819.727 560.446L821.09 580.879Z" fill="white"/>
<path d="M453.927 750.368C446.197 750.884 439.737 748.933 434.549 744.516C429.393 740.097 426.552 733.941 426.025 726.048L425.934 724.684C425.581 719.39 426.289 714.596 428.057 710.302C429.824 705.976 432.5 702.567 436.086 700.077C439.702 697.552 443.913 696.129 448.72 695.808C455.931 695.327 461.75 697.223 466.179 701.495C470.64 705.764 473.148 712.073 473.705 720.42L474.089 726.169L440.521 728.409C441.205 731.821 442.754 734.491 445.166 736.418C447.611 738.343 450.587 739.188 454.095 738.954C459.519 738.593 463.627 736.345 466.418 732.211L473.853 739.496C471.941 742.625 469.239 745.154 465.746 747.084C462.251 748.981 458.312 750.075 453.927 750.368ZM449.432 707.212C446.639 707.398 444.428 708.492 442.8 710.493C441.204 712.492 440.28 715.261 440.027 718.801L459.612 717.495L459.537 716.374C459.264 713.26 458.26 710.913 456.523 709.333C454.784 707.719 452.421 707.013 449.432 707.212ZM510.566 705.922C508.632 705.79 506.935 705.773 505.473 705.871C500.147 706.226 496.775 708.262 495.359 711.978L497.661 746.471L483.581 747.411L480.064 694.696L493.364 693.808L494.173 700.067C496.676 695.039 500.428 692.358 505.43 692.025C506.989 691.92 508.465 692.034 509.857 692.365L510.566 705.922ZM547.009 703.491C545.075 703.359 543.377 703.342 541.916 703.439C536.589 703.795 533.218 705.83 531.802 709.546L534.103 744.04L520.023 744.979L516.506 692.264L529.806 691.377L530.616 697.636C533.118 692.608 536.871 689.927 541.873 689.593C543.432 689.489 544.907 689.603 546.3 689.934L547.009 703.491ZM550.728 715.966C550.379 710.737 551.075 706.009 552.816 701.782C554.557 697.555 557.236 694.196 560.854 691.703C564.505 689.209 568.831 687.794 573.833 687.461C580.946 686.986 586.889 688.775 591.661 692.829C596.467 696.88 599.378 702.623 600.396 710.059L600.734 713.657C601.274 721.745 599.45 728.392 595.262 733.597C591.073 738.77 585.178 741.611 577.578 742.118C569.977 742.625 563.741 740.594 558.869 736.025C554.029 731.455 551.33 724.979 550.77 716.6L550.728 715.966ZM564.876 716.05C565.21 721.052 566.408 724.822 568.469 727.359C570.529 729.864 573.312 731 576.82 730.766C580.231 730.538 582.807 729.062 584.55 726.335C586.291 723.577 586.97 719.323 586.586 713.574C586.259 708.669 585.047 704.933 582.951 702.365C580.855 699.797 578.069 698.629 574.594 698.861C571.151 699.091 568.577 700.616 566.873 703.438C565.167 706.227 564.502 710.431 564.876 716.05ZM638.115 697.412C636.181 697.28 634.483 697.263 633.022 697.36C627.695 697.716 624.324 699.751 622.908 703.467L625.209 737.961L611.129 738.9L607.612 686.186L620.913 685.298L621.722 691.557C624.224 686.529 627.977 683.848 632.979 683.514C634.538 683.41 636.013 683.524 637.406 683.855L638.115 697.412Z" fill="white" fill-opacity="0.8"/>
<rect x="1048.38" y="331.093" width="70.5095" height="187.719" rx="35.2548" transform="rotate(79.2198 1048.38 331.093)" fill="white" stroke="black" stroke-width="7"/>
<rect x="36.0448" y="354.569" width="63.4948" height="170.097" rx="31.7474" transform="rotate(-9.80199 36.0448 354.569)" fill="white" stroke="black" stroke-width="7"/>
<rect x="1064.67" y="478.151" width="70.5095" height="171.432" rx="35.2548" transform="rotate(79.0651 1064.67 478.151)" fill="white" stroke="black" stroke-width="7"/>
<rect x="170.028" y="342.031" width="63.4948" height="155.283" rx="31.7474" transform="rotate(-9.95662 170.028 342.031)" fill="white" stroke="black" stroke-width="7"/>
<rect x="1063.1" y="406.519" width="70.5095" height="223.673" rx="35.2548" transform="rotate(83.0066 1063.1 406.519)" fill="white" stroke="black" stroke-width="7"/>
<rect x="104.846" y="342.373" width="63.4948" height="202.797" rx="31.7474" transform="rotate(-6.01516 104.846 342.373)" fill="white" stroke="black" stroke-width="7"/>
<defs>
<filter id="filter0_d" x="1" y="322" width="1041.8" height="545.851" filterUnits="userSpaceOnUse" color-interpolation-filters="sRGB">
<feFlood flood-opacity="0" result="BackgroundImageFix"/>
<feColorMatrix in="SourceAlpha" type="matrix" values="0 0 0 0 0 0 0 0 0 0 0 0 0 0 0 0 0 0 127 0"/>
<feOffset dx="5" dy="7"/>
<feGaussianBlur stdDeviation="2"/>
<feColorMatrix type="matrix" values="0 0 0 0 0 0 0 0 0 0 0 0 0 0 0 0 0 0 0.25 0"/>
<feBlend mode="normal" in2="BackgroundImageFix" result="effect1_dropShadow"/>
<feBlend mode="normal" in="SourceGraphic" in2="effect1_dropShadow" result="shape"/>
</filter>
</defs>
</svg>
